<?xml version="1.0" standalone="no"?>
<!DOCTYPE svg PUBLIC "-//W3C//DTD SVG 20010904//EN"
 "http://www.w3.org/TR/2001/REC-SVG-20010904/DTD/svg10.dtd">
<svg version="1.0" xmlns="http://www.w3.org/2000/svg"
 width="16.000000pt" height="16.000000pt" viewBox="0 0 16.000000 16.000000"
 preserveAspectRatio="xMidYMid meet">
<metadata>
Created by potrace 1.11, written by Peter Selinger 2001-2013
</metadata>
<g transform="translate(0.000000,16.000000) scale(0.002286,-0.002286)"
fill="#000000" stroke="none">
<path d="M3475 6217 c-66 -38 -196 -114 -235 -137 -42 -26 -209 -122 -870
-502 -151 -87 -282 -163 -290 -168 -8 -6 -24 -14 -35 -20 -11 -5 -220 -125
-465 -267 l-445 -259 0 -1364 0 -1365 275 -158 c151 -88 376 -218 500 -290
124 -72 250 -144 280 -160 30 -16 60 -33 65 -37 6 -4 55 -34 110 -65 55 -32
233 -135 395 -228 162 -94 311 -179 330 -190 19 -11 47 -27 62 -36 192 -113
344 -195 356 -193 8 2 44 21 79 43 36 21 67 39 69 39 2 0 32 17 66 38 35 21
95 56 133 76 39 21 77 45 86 52 8 8 18 14 22 14 4 0 44 22 89 49 46 26 157 91
248 143 91 52 257 148 370 213 113 65 225 129 250 143 25 13 52 31 61 38 8 8
18 14 22 14 4 0 44 22 89 49 79 46 318 184 382 221 140 79 373 214 381 220 7
6 10 471 10 1371 l0 1363 -230 134 c-127 73 -255 148 -286 165 -52 29 -464
267 -499 288 -43 25 -630 364 -797 460 -18 10 -119 69 -225 130 -106 61 -213
123 -238 137 -25 14 -54 31 -65 38 -22 16 -23 16 -50 1z"/>
</g>
</svg>
